<svg xmlns="http://www.w3.org/2000/svg" width="400" height="620" viewBox="0 0 400 620">
  <rect width="400" height="620" fill="#fffdf8"/>
  <g font-family="Courier, monospace" fill="#2b2b2b">
    <text x="200" y="52" font-size="20" text-anchor="middle" font-weight="bold">THE DAILY GRIND</text>
    <text x="200" y="74" font-size="11" text-anchor="middle">742 Evergreen Terrace</text>
    <text x="200" y="90" font-size="11" text-anchor="middle">Portland, OR 97205</text>
    <text x="200" y="106" font-size="11" text-anchor="middle">(503) 555-0117</text>
    <text x="200" y="134" font-size="11" text-anchor="middle">— — — — — — — — — — — — — — —</text>
    <text x="40" y="158" font-size="11">Order #4187</text>
    <text x="360" y="158" font-size="11" text-anchor="end">03/14/2026 9:41 AM</text>
    <text x="200" y="180" font-size="11" text-anchor="middle">— — — — — — — — — — — — — — —</text>
    <text x="40" y="210" font-size="12">2x Flat White (12oz)</text>
    <text x="360" y="210" font-size="12" text-anchor="end">$9.00</text>
    <text x="40" y="234" font-size="12">1x Almond Croissant</text>
    <text x="360" y="234" font-size="12" text-anchor="end">$4.75</text>
    <text x="40" y="258" font-size="12">1x Avocado Toast</text>
    <text x="360" y="258" font-size="12" text-anchor="end">$11.50</text>
    <text x="40" y="282" font-size="12">1x Fresh OJ (16oz)</text>
    <text x="360" y="282" font-size="12" text-anchor="end">$6.25</text>
    <text x="200" y="310" font-size="11" text-anchor="middle">— — — — — — — — — — — — — — —</text>
    <text x="40" y="338" font-size="12">Subtotal</text>
    <text x="360" y="338" font-size="12" text-anchor="end">$31.50</text>
    <text x="40" y="362" font-size="12">Tax (8.5%)</text>
    <text x="360" y="362" font-size="12" text-anchor="end">$2.68</text>
    <text x="40" y="386" font-size="12">Tip</text>
    <text x="360" y="386" font-size="12" text-anchor="end">$5.00</text>
    <text x="40" y="418" font-size="15" font-weight="bold">TOTAL</text>
    <text x="360" y="418" font-size="15" font-weight="bold" text-anchor="end">$39.18</text>
    <text x="200" y="446" font-size="11" text-anchor="middle">— — — — — — — — — — — — — — —</text>
    <text x="40" y="474" font-size="11">VISA ****4242</text>
    <text x="360" y="474" font-size="11" text-anchor="end">APPROVED</text>
    <text x="200" y="520" font-size="11" text-anchor="middle">Thank you, see you tomorrow!</text>
    <text x="200" y="560" font-size="24" text-anchor="middle">░░▒▒▓▓█▓▒░▓█▒░░▓</text>
  </g>
</svg>
